<mxfile host="65bd71144e">
    <diagram id="xVdB74F5v4736xja0ciQ" name="Page-1">
        <mxGraphModel dx="593" dy="629" grid="1" gridSize="10" guides="1" tooltips="1" connect="1" arrows="1" fold="1" page="1" pageScale="1" pageWidth="850" pageHeight="1100" background="none" math="0" shadow="0">
            <root>
                <mxCell id="0"/>
                <mxCell id="1" parent="0"/>
                <mxCell id="YrqY-wz_RY2QtS6upmUe-33" value="EC2?" style="rounded=0;whiteSpace=wrap;html=1;fillColor=none;align=left;verticalAlign=top;" parent="1" vertex="1">
                    <mxGeometry x="100" y="210" width="530" height="280" as="geometry"/>
                </mxCell>
                <mxCell id="YrqY-wz_RY2QtS6upmUe-1" value="docker" style="rounded=0;whiteSpace=wrap;html=1;fillColor=none;align=left;verticalAlign=top;" parent="1" vertex="1">
                    <mxGeometry x="140" y="225" width="470" height="250" as="geometry"/>
                </mxCell>
                <mxCell id="YrqY-wz_RY2QtS6upmUe-6" value="Backend&lt;br&gt;java &amp;amp; SpringBoot?" style="rounded=0;whiteSpace=wrap;html=1;strokeColor=#000000;fillColor=none;" parent="1" vertex="1">
                    <mxGeometry x="250" y="380" width="120" height="60" as="geometry"/>
                </mxCell>
                <mxCell id="YrqY-wz_RY2QtS6upmUe-7" value="availability script&lt;br&gt;python" style="rounded=0;whiteSpace=wrap;html=1;strokeColor=#000000;fillColor=none;" parent="1" vertex="1">
                    <mxGeometry x="480" y="370" width="120" height="60" as="geometry"/>
                </mxCell>
                <mxCell id="YrqY-wz_RY2QtS6upmUe-8" value="Selenium&lt;br&gt;chrome&lt;br&gt;VNC" style="rounded=0;whiteSpace=wrap;html=1;strokeColor=#000000;fillColor=none;" parent="1" vertex="1">
                    <mxGeometry x="440" y="260" width="120" height="60" as="geometry"/>
                </mxCell>
                <mxCell id="YrqY-wz_RY2QtS6upmUe-9" value="" style="sketch=0;aspect=fixed;pointerEvents=1;shadow=0;dashed=0;html=1;strokeColor=none;labelPosition=center;verticalLabelPosition=bottom;verticalAlign=top;align=center;fillColor=#000000;shape=mxgraph.azure.laptop" parent="1" vertex="1">
                    <mxGeometry x="333.34" y="610" width="83.33" height="50" as="geometry"/>
                </mxCell>
                <mxCell id="YrqY-wz_RY2QtS6upmUe-10" value="" style="verticalLabelPosition=bottom;html=1;verticalAlign=top;align=center;strokeColor=none;fillColor=#000000;shape=mxgraph.azure.mobile;pointerEvents=1;" parent="1" vertex="1">
                    <mxGeometry x="465" y="610" width="35" height="50" as="geometry"/>
                </mxCell>
                <mxCell id="YrqY-wz_RY2QtS6upmUe-11" value="application status&lt;br&gt;script&lt;br&gt;python" style="rounded=0;whiteSpace=wrap;html=1;strokeColor=#000000;fillColor=none;" parent="1" vertex="1">
                    <mxGeometry x="260" y="270" width="120" height="60" as="geometry"/>
                </mxCell>
                <mxCell id="YrqY-wz_RY2QtS6upmUe-12" value="Tokyo Sports Facility Service" style="rounded=0;whiteSpace=wrap;html=1;strokeColor=#000000;fillColor=none;" parent="1" vertex="1">
                    <mxGeometry x="690" y="225" width="120" height="60" as="geometry"/>
                </mxCell>
                <mxCell id="YrqY-wz_RY2QtS6upmUe-13" value="LINE Messaging Service" style="rounded=0;whiteSpace=wrap;html=1;strokeColor=#000000;fillColor=none;" parent="1" vertex="1">
                    <mxGeometry x="700" y="360" width="120" height="60" as="geometry"/>
                </mxCell>
                <mxCell id="YrqY-wz_RY2QtS6upmUe-14" value="scraping" style="endArrow=classic;html=1;rounded=0;" parent="1" source="YrqY-wz_RY2QtS6upmUe-7" target="YrqY-wz_RY2QtS6upmUe-8" edge="1">
                    <mxGeometry width="50" height="50" relative="1" as="geometry">
                        <mxPoint x="400" y="460" as="sourcePoint"/>
                        <mxPoint x="450" y="410" as="targetPoint"/>
                    </mxGeometry>
                </mxCell>
                <mxCell id="YrqY-wz_RY2QtS6upmUe-15" value="browse" style="endArrow=classic;html=1;rounded=0;" parent="1" source="YrqY-wz_RY2QtS6upmUe-9" target="YrqY-wz_RY2QtS6upmUe-6" edge="1">
                    <mxGeometry width="50" height="50" relative="1" as="geometry">
                        <mxPoint x="386.03999999999996" y="387.65999999999997" as="sourcePoint"/>
                        <mxPoint x="395.7116526725374" y="320" as="targetPoint"/>
                    </mxGeometry>
                </mxCell>
                <mxCell id="YrqY-wz_RY2QtS6upmUe-17" value="" style="endArrow=classic;html=1;rounded=0;exitX=0.5;exitY=0;exitDx=0;exitDy=0;exitPerimeter=0;" parent="1" source="YrqY-wz_RY2QtS6upmUe-10" target="YrqY-wz_RY2QtS6upmUe-6" edge="1">
                    <mxGeometry width="50" height="50" relative="1" as="geometry">
                        <mxPoint x="206.66520000000014" y="579.6499999999999" as="sourcePoint"/>
                        <mxPoint x="100" y="395" as="targetPoint"/>
                    </mxGeometry>
                </mxCell>
                <mxCell id="YrqY-wz_RY2QtS6upmUe-37" value="browse" style="edgeLabel;html=1;align=center;verticalAlign=middle;resizable=0;points=[];" parent="YrqY-wz_RY2QtS6upmUe-17" vertex="1" connectable="0">
                    <mxGeometry x="0.3103" y="1" relative="1" as="geometry">
                        <mxPoint as="offset"/>
                    </mxGeometry>
                </mxCell>
                <mxCell id="YrqY-wz_RY2QtS6upmUe-18" value="VNC" style="endArrow=classic;html=1;rounded=0;" parent="1" source="YrqY-wz_RY2QtS6upmUe-9" target="YrqY-wz_RY2QtS6upmUe-8" edge="1">
                    <mxGeometry width="50" height="50" relative="1" as="geometry">
                        <mxPoint x="347.5" y="535" as="sourcePoint"/>
                        <mxPoint x="143.67647058823536" y="395" as="targetPoint"/>
                    </mxGeometry>
                </mxCell>
                <mxCell id="YrqY-wz_RY2QtS6upmUe-19" value="scraping" style="endArrow=classic;html=1;rounded=0;" parent="1" source="YrqY-wz_RY2QtS6upmUe-11" target="YrqY-wz_RY2QtS6upmUe-8" edge="1">
                    <mxGeometry width="50" height="50" relative="1" as="geometry">
                        <mxPoint x="392.30769230769215" y="390" as="sourcePoint"/>
                        <mxPoint x="397.6923076923076" y="320" as="targetPoint"/>
                    </mxGeometry>
                </mxCell>
                <mxCell id="YrqY-wz_RY2QtS6upmUe-20" value="NoSQL" style="shape=cylinder3;whiteSpace=wrap;html=1;boundedLbl=1;backgroundOutline=1;size=7.666666666666686;strokeColor=#000000;fillColor=none;" parent="1" vertex="1">
                    <mxGeometry x="160" y="380" width="60" height="50" as="geometry"/>
                </mxCell>
                <mxCell id="YrqY-wz_RY2QtS6upmUe-23" value="push to channel" style="endArrow=classic;html=1;rounded=0;" parent="1" source="YrqY-wz_RY2QtS6upmUe-7" target="YrqY-wz_RY2QtS6upmUe-13" edge="1">
                    <mxGeometry width="50" height="50" relative="1" as="geometry">
                        <mxPoint x="260" y="405" as="sourcePoint"/>
                        <mxPoint x="345" y="320" as="targetPoint"/>
                    </mxGeometry>
                </mxCell>
                <mxCell id="YrqY-wz_RY2QtS6upmUe-24" value="" style="endArrow=classic;html=1;rounded=0;" parent="1" source="YrqY-wz_RY2QtS6upmUe-13" target="YrqY-wz_RY2QtS6upmUe-10" edge="1">
                    <mxGeometry width="50" height="50" relative="1" as="geometry">
                        <mxPoint x="290" y="425" as="sourcePoint"/>
                        <mxPoint x="620" y="370" as="targetPoint"/>
                    </mxGeometry>
                </mxCell>
                <mxCell id="YrqY-wz_RY2QtS6upmUe-25" value="push" style="edgeLabel;html=1;align=center;verticalAlign=middle;resizable=0;points=[];" parent="YrqY-wz_RY2QtS6upmUe-24" vertex="1" connectable="0">
                    <mxGeometry x="0.1932" y="1" relative="1" as="geometry">
                        <mxPoint as="offset"/>
                    </mxGeometry>
                </mxCell>
                <mxCell id="YrqY-wz_RY2QtS6upmUe-26" value="" style="endArrow=classic;html=1;rounded=0;" parent="1" source="YrqY-wz_RY2QtS6upmUe-6" target="YrqY-wz_RY2QtS6upmUe-20" edge="1">
                    <mxGeometry width="50" height="50" relative="1" as="geometry">
                        <mxPoint x="392.60538461538454" y="610" as="sourcePoint"/>
                        <mxPoint x="509.87153846153865" y="470" as="targetPoint"/>
                    </mxGeometry>
                </mxCell>
                <mxCell id="YrqY-wz_RY2QtS6upmUe-27" value="post data" style="endArrow=classic;html=1;rounded=0;" parent="1" source="YrqY-wz_RY2QtS6upmUe-11" target="YrqY-wz_RY2QtS6upmUe-6" edge="1">
                    <mxGeometry width="50" height="50" relative="1" as="geometry">
                        <mxPoint x="260" y="405" as="sourcePoint"/>
                        <mxPoint x="345" y="320" as="targetPoint"/>
                    </mxGeometry>
                </mxCell>
                <mxCell id="YrqY-wz_RY2QtS6upmUe-31" value="scraping" style="endArrow=classic;html=1;rounded=0;" parent="1" source="YrqY-wz_RY2QtS6upmUe-8" target="YrqY-wz_RY2QtS6upmUe-12" edge="1">
                    <mxGeometry width="50" height="50" relative="1" as="geometry">
                        <mxPoint x="475" y="290" as="sourcePoint"/>
                        <mxPoint x="435" y="290" as="targetPoint"/>
                    </mxGeometry>
                </mxCell>
            </root>
        </mxGraphModel>
    </diagram>
</mxfile>